<svg width="16" height="16" viewBox="0 0 16 16" fill="none" xmlns="http://www.w3.org/2000/svg">
<path d="M0.541507 13.5071C-0.0245953 14.0774 -0.024595 15.002 0.541507 15.5723C1.10761 16.1425 2.02544 16.1425 2.59155 15.5723L7.99984 10.1241L13.4081 15.5723C13.9742 16.1426 14.8921 16.1426 15.4582 15.5723C16.0243 15.002 16.0243 14.0774 15.4582 13.5071L10.0499 8.05889L15.5751 2.49287C16.1412 1.9226 16.1412 0.997989 15.5751 0.427709C15.009 -0.142571 14.0912 -0.142569 13.5251 0.427711L7.99984 5.99372L2.47461 0.427722C1.90851 -0.142558 0.990677 -0.142557 0.424576 0.427722C-0.141526 0.998002 -0.141525 1.92261 0.424577 2.49289L5.9498 8.05889L0.541507 13.5071Z" fill="black"/>
</svg>
