<svg width="272" height="320" viewBox="0 0 272 320" fill="none" xmlns="http://www.w3.org/2000/svg">
<mask id="mask0_1193_340" style="mask-type:alpha" maskUnits="userSpaceOnUse" x="0" y="0" width="272" height="320">
<path d="M0 50C0 22.3858 22.3858 0 50 0H222C249.614 0 272 22.3858 272 50V270C272 297.614 249.614 320 222 320H50C22.3858 320 0 297.614 0 270V50Z" fill="#C4C4C4"/>
</mask>
<g mask="url(#mask0_1193_340)">
<rect x="-19" y="-23" width="304" height="360" fill="#FAA881"/>
<path d="M12.8503 230.393C-74.7507 252.02 -162.074 203.026 -182.328 120.985C-202.582 38.9433 -148.094 -45.0607 -60.4925 -66.6876L256.718 -145C297.566 20.4601 188.053 187.139 12.8503 230.393Z" fill="#F26C74"/>
<path d="M298.197 289.365C349.266 363.753 334.134 462.732 264.467 510.56C194.8 558.388 96.9947 536.944 45.9254 462.556L-139 193.191C1.5034 96.7315 196.059 140.589 298.197 289.365Z" fill="#7675FD"/>
</g>
<path d="M34.184 267.44H62.296V259.656H47.176C53.672 254.672 61.68 247.504 61.68 238.544C61.68 231.656 57.536 226.224 48.24 226.224C40.792 226.224 34.352 230.48 34.072 240.392H43.312C43.312 236.528 44.992 234.288 47.848 234.288C50.76 234.288 52.104 236.192 52.104 239.16C52.104 246.048 42.864 253.16 34.184 260.328V267.44ZM67.9682 256.016C68.4162 262.288 72.7282 268.168 81.6322 268.168C92.6082 268.168 95.8562 260.44 95.8562 246.496C95.8562 234.064 92.6082 226.168 80.9602 226.168C72.2802 226.168 66.9042 231.544 66.9042 239.832C66.9042 248.512 72.2802 252.88 79.2802 252.88C82.7522 252.88 85.7762 251.536 87.4002 249.24C87.4002 257.024 86.0002 260.44 81.9682 260.44C79.0002 260.44 77.3762 258.872 76.8162 256.016H67.9682ZM81.4642 245.32C77.7122 245.32 75.9202 243.024 75.9202 239.944C75.9202 236.528 77.9362 234.4 81.2402 234.4C84.4882 234.4 86.6162 236.36 86.6162 240C86.6162 243.304 84.6002 245.32 81.4642 245.32ZM117.369 268H127.337V227.12H111.825V236.024H117.369V268ZM133.551 267.44H161.663V259.656H146.543C153.039 254.672 161.047 247.504 161.047 238.544C161.047 231.656 156.903 226.224 147.607 226.224C140.159 226.224 133.719 230.48 133.439 240.392H142.679C142.679 236.528 144.359 234.288 147.215 234.288C150.127 234.288 151.471 236.192 151.471 239.16C151.471 246.048 142.231 253.16 133.551 260.328V267.44ZM172.599 246.048C168.679 247.896 166.383 251.368 166.383 256.016C166.383 264.192 173.159 268.784 181.503 268.784C189.847 268.784 196.623 264.192 196.623 256.016C196.623 251.368 194.327 247.952 190.351 246.048C193.431 244.424 195.615 241.456 195.615 237.256C195.615 231.432 191.135 226.28 181.503 226.28C171.871 226.28 167.335 231.432 167.335 237.256C167.335 241.568 169.463 244.368 172.599 246.048ZM181.503 243.472C178.759 243.472 176.687 241.736 176.687 238.768C176.687 235.632 178.647 233.896 181.503 233.896C184.359 233.896 186.319 235.632 186.319 238.712C186.319 241.68 184.247 243.472 181.503 243.472ZM181.503 250.192C184.919 250.192 187.271 252.208 187.271 255.568C187.271 258.592 185.143 260.944 181.503 260.944C177.807 260.944 175.623 258.648 175.623 255.568C175.623 252.096 178.087 250.192 181.503 250.192Z" fill="white"/>
<path d="M33.24 201H36.66V192.56L39.82 201H42.58L45.72 192.58V201H49.14V186.96H45.12L41.22 196.68L37.28 186.96H33.24V201ZM56.5194 192.42C57.6594 192.42 58.6194 193.12 58.6194 194.34H54.3394C54.5394 193.1 55.3994 192.42 56.5194 192.42ZM61.8594 197.3H58.2194C57.9394 197.9 57.3994 198.38 56.4394 198.38C55.3394 198.38 54.4394 197.7 54.3194 196.24H62.0594C62.0994 195.9 62.1194 195.56 62.1194 195.24C62.1194 191.84 59.8194 189.68 56.5594 189.68C53.2394 189.68 50.9194 191.88 50.9194 195.42C50.9194 198.96 53.2794 201.16 56.5594 201.16C59.3394 201.16 61.3194 199.48 61.8594 197.3ZM79.3036 201H82.7036V194.48C82.7036 191.48 80.9236 189.72 78.1636 189.72C76.5436 189.72 75.1436 190.62 74.4036 191.8C73.6436 190.46 72.2836 189.72 70.6036 189.72C69.1436 189.72 68.0036 190.34 67.3436 191.24V189.84H63.9236V201H67.3436V194.94C67.3436 193.48 68.1836 192.68 69.4836 192.68C70.7836 192.68 71.6236 193.48 71.6236 194.94V201H75.0236V194.94C75.0236 193.48 75.8636 192.68 77.1636 192.68C78.4636 192.68 79.3036 193.48 79.3036 194.94V201ZM88.5155 191.42V186.2H85.0955V201H88.5155V199.44C89.1355 200.42 90.3155 201.16 91.9555 201.16C94.6955 201.16 96.8755 198.92 96.8755 195.4C96.8755 191.88 94.7155 189.68 91.9555 189.68C90.3555 189.68 89.1355 190.42 88.5155 191.42ZM93.3955 195.4C93.3955 197.18 92.2355 198.18 90.9355 198.18C89.6555 198.18 88.4955 197.2 88.4955 195.42C88.4955 193.64 89.6555 192.66 90.9355 192.66C92.2355 192.66 93.3955 193.62 93.3955 195.4ZM103.59 192.42C104.73 192.42 105.69 193.12 105.69 194.34H101.41C101.61 193.1 102.47 192.42 103.59 192.42ZM108.93 197.3H105.29C105.01 197.9 104.47 198.38 103.51 198.38C102.41 198.38 101.51 197.7 101.39 196.24H109.13C109.17 195.9 109.19 195.56 109.19 195.24C109.19 191.84 106.89 189.68 103.63 189.68C100.31 189.68 97.9897 191.88 97.9897 195.42C97.9897 198.96 100.35 201.16 103.63 201.16C106.41 201.16 108.39 199.48 108.93 197.3ZM114.414 195.82C114.414 193.9 115.354 193.34 116.974 193.34H117.914V189.72C116.414 189.72 115.194 190.52 114.414 191.7V189.84H110.994V201H114.414V195.82ZM128.609 197.76C128.549 193.6 122.509 194.86 122.509 193.08C122.509 192.54 122.949 192.22 123.749 192.22C124.709 192.22 125.289 192.72 125.389 193.48H128.549C128.329 191.28 126.729 189.68 123.849 189.68C120.929 189.68 119.309 191.24 119.309 193.14C119.309 197.24 125.389 195.94 125.389 197.74C125.389 198.24 124.929 198.64 124.049 198.64C123.109 198.64 122.409 198.12 122.329 197.34H118.949C119.109 199.5 121.109 201.16 124.089 201.16C126.889 201.16 128.609 199.7 128.609 197.76Z" fill="white"/>
<path d="M78.0001 57.2532C75.1808 44.8408 72.2699 32 54.2209 32C41.9689 32 32 42.0492 32 54.4V88H65.3314V79.6H68.109C71.1727 79.6 73.6643 77.0884 73.6643 74V65.6H80C80 65.6 78.3612 58.8576 78.0001 57.2532ZM54.2209 65.5664C54.2209 65.5664 43.1105 57.424 43.1105 51.3872C43.1105 45.6556 51.7516 43.1636 54.2209 50.6928C56.6902 43.1664 65.3314 45.6556 65.3314 51.3872C65.3314 57.424 54.2209 65.5664 54.2209 65.5664Z" fill="white"/>
</svg>
